<?xml version="1.0" encoding="UTF-8"?>
<svg version="1.1" xmlns="http://www.w3.org/2000/svg" width="512" height="512">
<path d="M0 0 C1.30947364 0.64639402 2.61464661 1.30154737 3.91622353 1.96369839 C4.64005529 2.32390542 5.36388705 2.68411245 6.10965312 3.05523485 C8.52711945 4.26068133 10.93869944 5.47745333 13.35045815 6.69427395 C15.08496749 7.56209291 16.8198297 8.42920693 18.55501747 9.2956686 C23.26060093 11.64788652 27.961186 14.00993809 32.66093969 16.37377763 C37.57481474 18.84321767 42.49322229 21.30359641 47.41115761 23.7649374 C56.72149516 28.42632234 66.02772404 33.09584948 75.33250678 37.76831096 C87.90755595 44.08237025 100.48890889 50.38384256 113.06991577 56.6860199 C132.88946708 66.61460146 152.70053941 76.55998245 172.5130558 86.50262356 C172.5130558 120.82262356 172.5130558 155.14262356 172.5130558 190.50262356 C162.6130558 192.15262356 152.7130558 193.80262356 142.5130558 195.50262356 C137.5630558 196.49262356 137.5630558 196.49262356 132.5130558 197.50262356 C132.5130558 176.38262356 132.5130558 155.26262356 132.5130558 133.50262356 C124.01813393 137.76168606 115.52321205 142.02074856 106.7708683 146.40887356 C101.40259834 149.09811537 96.03422879 151.7871552 90.66539955 154.47527981 C82.13541554 158.74621346 73.60586035 163.01798899 65.07897377 167.29510403 C58.86985008 170.40961666 52.65933682 173.52133742 46.4471215 176.6296792 C43.15625655 178.27641811 39.86611627 179.92456988 36.57763481 181.57606411 C32.91129847 183.41725397 29.24187464 185.25220502 25.57213783 187.08660793 C24.47594124 187.63830151 23.37974464 188.18999508 22.25032997 188.75840664 C21.25471046 189.25484173 20.25909096 189.75127682 19.23330116 190.26275539 C18.36497217 190.69784168 17.49664318 191.13292797 16.60200119 191.58119869 C14.5130558 192.50262356 14.5130558 192.50262356 12.5130558 192.50262356 C12.5130558 225.17262356 12.5130558 257.84262356 12.5130558 291.50262356 C-0.6869442 291.50262356 -13.8869442 291.50262356 -27.4869442 291.50262356 C-27.4869442 258.83262356 -27.4869442 226.16262356 -27.4869442 192.50262356 C-30.4569442 191.51262356 -30.4569442 191.51262356 -33.4869442 190.50262356 C-35.18623862 189.73599426 -36.8696782 188.93335067 -38.53635216 188.0981741 C-39.98455628 187.37613828 -39.98455628 187.37613828 -41.46201706 186.63951588 C-42.50842173 186.11271544 -43.55482639 185.58591499 -44.63294029 185.0431509 C-45.76365267 184.47791525 -46.89436504 183.9126796 -48.05934143 183.33031559 C-51.10641322 181.80700463 -54.15105832 180.27890363 -57.19521141 178.74977016 C-60.05644094 177.31344299 -62.91985373 175.88148493 -65.78308678 174.44915676 C-74.14489437 170.26301427 -82.50320828 166.06989609 -90.8619442 161.87762356 C-118.8913192 147.83199856 -118.8913192 147.83199856 -147.4869442 133.50262356 C-147.4869442 184.32262356 -147.4869442 235.14262356 -147.4869442 287.50262356 C-145.5069442 288.16262356 -143.5269442 288.82262356 -141.4869442 289.50262356 C-139.57197829 290.38312683 -137.67492503 291.30331468 -135.79456139 292.25547695 C-134.68431602 292.81500561 -133.57407066 293.37453426 -132.4301815 293.95101833 C-131.21470197 294.56867458 -129.99924874 295.18638261 -128.7838192 295.80413723 C-127.4923923 296.45668692 -126.20076086 297.10883194 -124.90894127 297.7606039 C-122.13495602 299.16089096 -119.36212813 300.56343519 -116.59009361 301.96757984 C-112.20576499 304.18764723 -107.81705924 306.39895984 -103.42737389 308.60841274 C-101.92279092 309.36584749 -100.41821333 310.12329291 -98.91364098 310.88074875 C-98.16042313 311.25994323 -97.40720528 311.63913772 -96.63116264 312.02982295 C-86.41761812 317.17261622 -76.20793595 322.32295963 -66.00647545 327.4896841 C-59.11687061 330.97896783 -52.22163979 334.45684813 -45.31980324 337.92187768 C-41.67003431 339.75483552 -38.02347448 341.59363116 -34.38379478 343.44655323 C-30.96291825 345.18803341 -27.53489795 346.91452813 -24.10082054 348.62982273 C-22.84270044 349.26157916 -21.58732299 349.89883211 -20.33498192 350.54196835 C-18.62393023 351.4196634 -16.90184602 352.27575049 -15.17932701 353.13072109 C-14.21923729 353.61575194 -13.25914757 354.10078279 -12.26996422 354.60051155 C-5.5542117 356.77741324 -0.85984189 353.33502253 5.5130558 350.50262356 C5.8430558 365.68262356 6.1730558 380.86262356 6.5130558 396.50262356 C-5.4869442 402.50262356 -5.4869442 402.50262356 -11.4869442 401.50262356 C-14.01990603 400.41490974 -16.43924203 399.28838426 -18.89011192 398.04154873 C-19.97325676 397.50254436 -19.97325676 397.50254436 -21.07828331 396.95265102 C-23.49750989 395.74634047 -25.91082614 394.52865537 -28.32434654 393.31097317 C-30.08690081 392.42908322 -31.84980747 391.54789726 -33.61303711 390.6673584 C-38.33182415 388.3084162 -43.0457306 385.93987529 -47.75868797 383.5693121 C-52.1826654 381.34592948 -56.6109716 379.13124382 -61.03894615 376.91583157 C-73.98431824 370.43265288 -86.92270638 363.93553648 -99.8619442 357.44012356 C-128.7781942 342.94074856 -157.6944442 328.44137356 -187.4869442 313.50262356 C-187.4869442 238.59262356 -187.4869442 163.68262356 -187.4869442 86.50262356 C-158.2406942 71.79699856 -128.9944442 57.09137356 -98.8619442 41.94012356 C-85.00460289 34.95682888 -85.00460289 34.95682888 -70.86731529 27.83245754 C-59.59558678 22.17852688 -59.59558678 22.17852688 -54.32059288 19.537673 C-50.62855091 17.68791797 -46.94116948 15.82920801 -43.2563839 13.96504116 C-38.55917351 11.58904686 -33.854534 9.228445 -29.14404798 6.87888634 C-27.41467386 6.01301025 -25.68800082 5.1417138 -23.96436381 4.26447284 C-21.6386999 3.08179812 -19.30404421 1.91919273 -16.96603966 0.76115322 C-16.29112291 0.41204419 -15.61620617 0.06293516 -14.9208374 -0.29675293 C-9.06219575 -3.15227391 -5.83569546 -2.50598588 0 0 Z M-14.21991539 45.62860012 C-15.1677993 46.09979275 -16.11568321 46.57098537 -17.09229088 47.05645657 C-18.6416433 47.8419186 -18.6416433 47.8419186 -20.22229576 48.64324856 C-21.31527977 49.18944851 -22.40826378 49.73564846 -23.53436852 50.29839993 C-26.52873213 51.79673648 -29.51936857 53.30208646 -32.5085783 54.81065273 C-35.63406046 56.38589476 -38.76407478 57.95207833 -41.89362144 59.51922512 C-47.81826717 62.48776462 -53.73878703 65.46443786 -59.65787101 68.44404888 C-66.39711555 71.83602443 -73.14090456 75.21891665 -79.88509226 78.60105038 C-93.75746074 85.55814078 -107.62407277 92.52662635 -121.4869442 99.50262356 C-118.75627609 101.64887707 -116.04393755 103.35443297 -112.94620323 104.92016506 C-112.0406469 105.38009853 -111.13509056 105.84003201 -110.20209312 106.31390285 C-109.21602074 106.80962795 -108.22994835 107.30535305 -107.21399498 107.81610012 C-106.16966301 108.3448373 -105.12533104 108.87357449 -104.04935265 109.41833401 C-100.5960167 111.16469878 -97.13950483 112.90464256 -93.6822567 114.64324856 C-92.48994747 115.24345306 -91.29766523 115.84371117 -90.10540962 116.44402218 C-84.50648774 119.26250982 -78.9056596 122.07716411 -73.30244839 124.88711476 C-66.84052578 128.12786047 -60.38545227 131.38175839 -53.935835 134.64692235 C-48.94429754 137.17284719 -43.94668476 139.68646468 -38.94435298 142.19094348 C-35.95890542 143.68601696 -32.97730743 145.18774017 -30.00022316 146.69946957 C-26.6803679 148.38365232 -23.351065 150.04749988 -20.01868248 151.70672512 C-19.03665855 152.21054714 -18.05463463 152.71436916 -17.0428524 153.23345852 C-11.99084321 155.73438479 -11.99084321 155.73438479 -6.50238609 156.62501431 C-1.73632734 154.85101884 2.75907087 152.63903321 7.2918644 150.34027004 C8.36563332 149.80367764 9.43940224 149.26708523 10.54570961 148.71423244 C13.47795453 147.24695817 16.40653392 145.77266109 19.33361959 144.29512954 C22.39768484 142.75056594 25.46630558 141.21510682 28.53444862 139.67866421 C34.33861754 136.77037193 40.13866065 133.85394902 45.9372555 130.93456179 C52.54110857 127.61025451 59.14952543 124.29506893 65.75833583 120.98063076 C79.34833457 114.1647452 92.93257759 107.33746131 106.5130558 100.50262356 C103.77874308 98.35178122 101.06574909 96.65186868 97.95885658 95.09181118 C97.05040993 94.63332287 96.14196327 94.17483456 95.20598793 93.70245266 C94.21677345 93.20829861 93.22755898 92.71414455 92.2083683 92.20501614 C91.16082375 91.67788525 90.11327919 91.15075436 89.03399086 90.6076498 C85.57080079 88.86655565 82.10462329 87.13151366 78.6380558 85.39715481 C77.44318315 84.79829489 76.24837956 84.19929717 75.05364418 83.60016346 C68.80059876 80.46439887 62.54550786 77.33275926 56.28844643 74.20501614 C50.45668277 71.28973587 44.62944684 68.3655478 38.80424881 65.43717366 C33.79977972 62.9218701 28.79225097 60.41273419 23.7822876 57.90839213 C20.79126971 56.41313822 17.80154823 54.91542295 14.81487465 53.41150761 C11.48623157 51.73742661 8.15270989 50.0734871 4.8177433 48.41204739 C3.82852882 47.91182064 2.83931435 47.41159389 1.82012367 46.89620876 C0.45745369 46.2211655 0.45745369 46.2211655 -0.93274498 45.53248501 C-1.72029167 45.13816689 -2.50783836 44.74384878 -3.31925011 44.33758163 C-7.57202944 42.69948497 -10.37665302 43.69835176 -14.21991539 45.62860012 Z " fill="#1BD7B9" transform="translate(187.4869441986084,2.4973764419555664)"/>
<path d="M0 0 C0.73460449 0.19835449 1.46920898 0.39670898 2.22607422 0.60107422 C24.83004626 6.79806285 44.07957734 19.00597729 61 35 C61.81082031 35.74636719 62.62164062 36.49273437 63.45703125 37.26171875 C80.9089877 53.88917332 92.74805568 75.84596739 99 99 C99.20737793 99.71784668 99.41475586 100.43569336 99.62841797 101.17529297 C105.92433346 123.55689927 105.43328591 150.73093338 99 173 C98.70246826 174.10190674 98.70246826 174.10190674 98.39892578 175.22607422 C92.20193715 197.83004626 79.99402271 217.07957734 64 234 C63.25363281 234.81082031 62.50726563 235.62164062 61.73828125 236.45703125 C44.23665527 254.82650645 21.26156771 266.35060709 -3 273 C-3.66757324 273.19062012 -4.33514648 273.38124023 -5.02294922 273.57763672 C-26.12311455 279.32824037 -53.18720512 278.01258519 -74 272 C-74.73460449 271.80164551 -75.46920898 271.60329102 -76.22607422 271.39892578 C-98.83004626 265.20193715 -118.07957734 252.99402271 -135 237 C-135.81082031 236.25363281 -136.62164062 235.50726563 -137.45703125 234.73828125 C-155.82650645 217.23665527 -167.35060709 194.26156771 -174 170 C-174.28593018 168.99864014 -174.28593018 168.99864014 -174.57763672 167.97705078 C-180.32824037 146.87688545 -179.01258519 119.81279488 -173 99 C-172.80164551 98.26539551 -172.60329102 97.53079102 -172.39892578 96.77392578 C-166.20193715 74.16995374 -153.99402271 54.92042266 -138 38 C-137.25363281 37.18917969 -136.50726563 36.37835938 -135.73828125 35.54296875 C-119.11082668 18.0910123 -97.15403261 6.25194432 -74 0 C-73.28215332 -0.20737793 -72.56430664 -0.41475586 -71.82470703 -0.62841797 C-49.44310073 -6.92433346 -22.26906662 -6.43328591 0 0 Z M-111 69 C-130.21626197 89.74558386 -136.91746888 115.54774912 -136.34375 143.19140625 C-135.35555953 168.85965378 -122.51837943 192.57866743 -104 210 C-84.85241308 227.2334264 -59.54841189 236.79910848 -33.7265625 235.92285156 C-11.58164826 234.66294573 8.73704934 227.06312024 26 213 C26.82757813 212.33613281 27.65515625 211.67226563 28.5078125 210.98828125 C46.62705778 195.62384285 58.68591065 173.5267733 62 150 C64.05235771 120.78901466 58.37049518 94.19651059 39.109375 71.51953125 C20.98966586 50.9660936 -2.87820177 38.76329662 -30.1875 36.1875 C-61.55016605 34.65840736 -88.97717991 47.03818495 -111 69 Z " fill="#0BB5E1" transform="translate(409,236)"/>
<path d="M0 0 C13.2 0 26.4 0 40 0 C40 13.2 40 26.4 40 40 C53.2 40 66.4 40 80 40 C80 53.2 80 66.4 80 80 C66.8 80 53.6 80 40 80 C40 93.2 40 106.4 40 120 C26.8 120 13.6 120 0 120 C0 106.8 0 93.6 0 80 C-13.2 80 -26.4 80 -40 80 C-40 66.8 -40 53.6 -40 40 C-26.8 40 -13.6 40 0 40 C0 26.8 0 13.6 0 0 Z " fill="#0BB5E1" transform="translate(352,312)"/>
</svg>
